# xmcd
#
# Track frame offsets:
# 150
# 21631
# 36434
# 55022
# 76662
# 95968
# 116296
# 137257
# 154248
# 170470
# 189199
# 208779
# 224092
# 241029
# 261109
# 277667
#
# Disc length: 3910 seconds
#
# Revision: 0
# Processed by: cddbd v1.5.1PL0 Copyright (c) Steve Scherf et al.
# Submitted via: Axialis_AX_CDPlayer 2.6
#
DISCID=d90f4410
DTITLE=John Kay - Heretics and Privateers
DYEAR=1900
DGENRE=
TTITLE0=Heretics and Privateers 
TTITLE1=Don't Waste My Time 
TTITLE2=Ain't That A Shame 
TTITLE3=Dodging Bullets 
TTITLE4=She's Got The Goods 
TTITLE5=For The Women In My Life 
TTITLE6=To Be Alive 
TTITLE7=I Will Not Be Denied 
TTITLE8=Endless Commercial 
TTITLE9=The Ice Age 
TTITLE10=Sleep With One Eye Open 
TTITLE11=The Back Page 
TTITLE12=She's Got The Goods  (acoustic)
TTITLE13=For The Women In My Life  (acoustic)
TTITLE14=I Will Not Be Denied  (acoustic)
TTITLE15=Endless Commercial  (acoustic)
EXTD=
EXTT0=
EXTT1=
EXTT2=
EXTT3=
EXTT4=
EXTT5=
EXTT6=
EXTT7=
EXTT8=
EXTT9=
EXTT10=
EXTT11=
EXTT12=
EXTT13=
EXTT14=
EXTT15=
PLAYORDER=
